<svg width="16" height="16" viewBox="0 0 16 16" fill="none" xmlns="http://www.w3.org/2000/svg">
<path fill-rule="evenodd" clip-rule="evenodd" d="M14.3653 3.40738C14.5528 3.59491 14.6581 3.84921 14.6581 4.11438C14.6581 4.37954 14.5528 4.63385 14.3653 4.82138L6.86999 12.3167C6.77093 12.4158 6.65333 12.4944 6.5239 12.548C6.39447 12.6016 6.25575 12.6292 6.11565 12.6292C5.97556 12.6292 5.83683 12.6016 5.7074 12.548C5.57797 12.4944 5.46037 12.4158 5.36132 12.3167L1.63732 8.59338C1.54181 8.50113 1.46563 8.39079 1.41322 8.26878C1.36081 8.14678 1.33322 8.01556 1.33207 7.88278C1.33092 7.75 1.35622 7.61832 1.4065 7.49542C1.45678 7.37253 1.53103 7.26088 1.62492 7.16698C1.71882 7.07309 1.83047 6.99884 1.95337 6.94856C2.07626 6.89828 2.20794 6.87297 2.34072 6.87413C2.4735 6.87528 2.60472 6.90287 2.72672 6.95528C2.84873 7.00769 2.95907 7.08387 3.05132 7.17938L6.11532 10.2434L12.9507 3.40738C13.0435 3.31445 13.1538 3.24073 13.2752 3.19044C13.3965 3.14014 13.5266 3.11426 13.658 3.11426C13.7894 3.11426 13.9195 3.14014 14.0408 3.19044C14.1622 3.24073 14.2725 3.31445 14.3653 3.40738Z" fill="white"/>
</svg>
