<svg width="30" height="30" viewBox="0 0 30 30" fill="none" xmlns="http://www.w3.org/2000/svg">
<rect width="30" height="30" rx="4" fill="black"/>
<path fill-rule="evenodd" clip-rule="evenodd" d="M7.5 15C7.5 12.0041 7.5 10.5061 8.21391 9.42713C8.53271 8.94532 8.94532 8.53271 9.42713 8.21391C10.5061 7.5 12.0041 7.5 15 7.5C17.9959 7.5 19.4939 7.5 20.5729 8.21391C21.0547 8.53271 21.4673 8.94532 21.7861 9.42713C22.5 10.5061 22.5 12.0041 22.5 15C22.5 17.9959 22.5 19.4939 21.7861 20.5729C21.4673 21.0547 21.0547 21.4673 20.5729 21.7861C19.4939 22.5 17.9959 22.5 15 22.5C12.0041 22.5 10.5061 22.5 9.42713 21.7861C8.94532 21.4673 8.53271 21.0547 8.21391 20.5729C7.5 19.4939 7.5 17.9959 7.5 15ZM18.8827 15.0002C18.8827 17.1446 17.1443 18.883 14.9999 18.883C12.8554 18.883 11.117 17.1446 11.117 15.0002C11.117 12.8558 12.8554 11.1173 14.9999 11.1173C17.1443 11.1173 18.8827 12.8558 18.8827 15.0002ZM14.9999 17.5694C16.4188 17.5694 17.569 16.4191 17.569 15.0002C17.569 13.5813 16.4188 12.431 14.9999 12.431C13.581 12.431 12.4307 13.5813 12.4307 15.0002C12.4307 16.4191 13.581 17.5694 14.9999 17.5694ZM19.0361 11.8346C19.5399 11.8346 19.9484 11.4261 19.9484 10.9223C19.9484 10.4184 19.5399 10.0099 19.0361 10.0099C18.5322 10.0099 18.1237 10.4184 18.1237 10.9223C18.1237 11.4261 18.5322 11.8346 19.0361 11.8346Z" fill="white"/>
</svg>
