<svg width="177" height="46" viewBox="0 0 177 46" fill="none" xmlns="http://www.w3.org/2000/svg">
<path d="M52.5561 1.616H52.8621L54.2841 6.548L52.2141 14H48.6141L52.5561 1.616ZM56.6061 11.804H53.6001L54.3561 9.032H55.7961L53.6721 1.616H56.9661L60.9081 14H57.2361L56.6061 11.804ZM61.7455 1.616H65.3455V14H61.7455V1.616ZM49.4881 17.368H52.2881V27H49.4881V17.368ZM52.8761 17.368H56.1521V19.51H52.8761V17.368ZM52.8761 21.344H55.6341V23.486H52.8761V21.344ZM60.6798 22.576C60.6798 22.3333 60.6705 22.1607 60.6518 22.058C60.6331 21.9553 60.5771 21.8807 60.4838 21.834C60.3998 21.7873 60.2411 21.7547 60.0078 21.736C59.8678 21.7267 59.5645 21.722 59.0978 21.722C58.6498 21.722 58.2345 21.7407 57.8518 21.778L57.1098 21.82V20C57.9871 19.832 58.9345 19.748 59.9518 19.748C60.7358 19.748 61.3471 19.804 61.7858 19.916C62.2338 20.028 62.5698 20.2053 62.7938 20.448C62.9898 20.672 63.1158 20.9567 63.1718 21.302C63.2371 21.6473 63.2698 22.128 63.2698 22.744V27H60.6798V22.576ZM58.6078 27.098C57.9638 27.098 57.4878 26.9207 57.1798 26.566C56.8718 26.202 56.7178 25.656 56.7178 24.928C56.7178 24.48 56.7505 24.1207 56.8158 23.85C56.8811 23.57 56.9931 23.3507 57.1518 23.192C57.3105 23.024 57.5298 22.9073 57.8098 22.842C58.0898 22.7673 58.4585 22.73 58.9158 22.73L60.0918 22.758V24.004H59.9518C59.7371 24.004 59.5971 24.0087 59.5318 24.018C59.3451 24.0273 59.2471 24.116 59.2378 24.284C59.2285 24.34 59.2238 24.4567 59.2238 24.634C59.2238 24.774 59.2285 24.8813 59.2378 24.956C59.2565 25.0307 59.2845 25.0913 59.3218 25.138C59.3685 25.2033 59.4385 25.2407 59.5318 25.25C59.6625 25.2687 59.8025 25.278 59.9518 25.278H60.0918V26.706C59.8865 26.8647 59.6671 26.9673 59.4338 27.014C59.2098 27.07 58.9345 27.098 58.6078 27.098ZM69.8445 21.806C69.6671 21.7967 69.4245 21.7733 69.1165 21.736C68.5378 21.68 68.0711 21.652 67.7165 21.652H67.2545V19.748C67.9171 19.748 68.5471 19.7947 69.1445 19.888L69.8445 20.014V21.806ZM67.8145 24.83C67.8145 24.69 67.7911 24.6013 67.7445 24.564C67.6978 24.5267 67.5998 24.4987 67.4505 24.48L65.9385 24.27C65.5651 24.214 65.2618 24.1253 65.0285 24.004C64.8045 23.8827 64.6365 23.7193 64.5245 23.514C64.4125 23.3367 64.3378 23.122 64.3005 22.87C64.2631 22.618 64.2445 22.3053 64.2445 21.932C64.2445 21.1667 64.4731 20.6067 64.9305 20.252C65.3131 19.972 65.8918 19.8087 66.6665 19.762V21.96C66.6665 22.1 66.6851 22.1933 66.7225 22.24C66.7598 22.2773 66.8765 22.31 67.0725 22.338L68.7525 22.562C68.9951 22.59 69.2051 22.6413 69.3825 22.716C69.5598 22.7813 69.7091 22.884 69.8305 23.024C70.1011 23.3227 70.2365 23.8967 70.2365 24.746C70.2365 25.642 70.0078 26.2673 69.5505 26.622C69.1491 26.9207 68.5705 27.0793 67.8145 27.098V24.83ZM67.2265 27.112C66.4798 27.1027 65.8265 27.056 65.2665 26.972L64.4685 26.846V25.054C64.8418 25.0913 65.3458 25.1287 65.9805 25.166C66.3351 25.1847 66.5871 25.194 66.7365 25.194H67.2265V27.112ZM71.2451 16.598H73.8351V27H71.2451V16.598ZM75.2911 23.626C75.2911 23.1313 75.2864 22.8047 75.2771 22.646C75.2584 22.3847 75.2351 22.212 75.2071 22.128C75.1698 22.0347 75.1044 21.9787 75.0111 21.96C74.9178 21.932 74.7684 21.918 74.5631 21.918H74.4231V20.21C74.7964 19.9113 75.2724 19.762 75.8511 19.762C76.6911 19.762 77.2558 20.0187 77.5451 20.532C77.6758 20.756 77.7644 21.0313 77.8111 21.358C77.8578 21.6753 77.8811 22.0673 77.8811 22.534V27H75.2911V23.626ZM79.1956 16.598H81.7856V18.614H79.1956V16.598ZM79.1956 19.86H81.7856V27H79.1956V19.86ZM87.0892 23.444C87.0892 22.968 87.0845 22.6507 87.0752 22.492C87.0658 22.268 87.0378 22.1 86.9912 21.988C86.9445 21.8667 86.8698 21.792 86.7672 21.764C86.6552 21.736 86.5012 21.722 86.3052 21.722H86.1092V19.748H86.3052C87.1172 19.748 87.7518 19.8133 88.2092 19.944C88.6665 20.0653 89.0072 20.2707 89.2312 20.56C89.4365 20.8213 89.5672 21.1713 89.6232 21.61C89.6885 22.0393 89.7212 22.6507 89.7212 23.444C89.7212 24.1813 89.6978 24.7553 89.6512 25.166C89.6138 25.5673 89.5158 25.8987 89.3572 26.16C89.1798 26.4493 88.9138 26.6687 88.5592 26.818C88.2045 26.958 87.7145 27.0467 87.0892 27.084V23.444ZM86.3052 27.112C85.4932 27.112 84.8585 27.0513 84.4012 26.93C83.9438 26.8087 83.6032 26.6033 83.3792 26.314C83.1738 26.0527 83.0385 25.7073 82.9732 25.278C82.9172 24.8487 82.8892 24.2373 82.8892 23.444C82.8892 22.716 82.9125 22.1467 82.9592 21.736C83.0058 21.3253 83.1085 20.9847 83.2672 20.714C83.4352 20.4153 83.6965 20.196 84.0512 20.056C84.4058 19.9067 84.8958 19.8133 85.5212 19.776V23.444C85.5212 23.92 85.5258 24.2327 85.5352 24.382C85.5445 24.606 85.5725 24.774 85.6192 24.886C85.6658 24.998 85.7452 25.068 85.8572 25.096C85.9505 25.124 86.0998 25.138 86.3052 25.138H86.5012V27.112H86.3052ZM94.8769 23.626C94.8769 23.1313 94.8722 22.8047 94.8629 22.646C94.8442 22.3847 94.8209 22.212 94.7929 22.128C94.7556 22.0347 94.6902 21.9787 94.5969 21.96C94.5036 21.932 94.3542 21.918 94.1489 21.918H94.0089V20.168C94.3729 19.8973 94.8489 19.762 95.4369 19.762C96.2769 19.762 96.8416 20.0187 97.1309 20.532C97.2616 20.756 97.3502 21.0313 97.3969 21.358C97.4436 21.6753 97.4669 22.0673 97.4669 22.534V27H94.8769V23.626ZM90.8309 19.86H93.4209V27H90.8309V19.86ZM98.7814 16.598H101.371V18.614H98.7814V16.598ZM98.7814 19.86H101.371V27H98.7814V19.86ZM107.977 21.806C107.8 21.7967 107.557 21.7733 107.249 21.736C106.67 21.68 106.204 21.652 105.849 21.652H105.387V19.748C106.05 19.748 106.68 19.7947 107.277 19.888L107.977 20.014V21.806ZM105.947 24.83C105.947 24.69 105.924 24.6013 105.877 24.564C105.83 24.5267 105.732 24.4987 105.583 24.48L104.071 24.27C103.698 24.214 103.394 24.1253 103.161 24.004C102.937 23.8827 102.769 23.7193 102.657 23.514C102.545 23.3367 102.47 23.122 102.433 22.87C102.396 22.618 102.377 22.3053 102.377 21.932C102.377 21.1667 102.606 20.6067 103.063 20.252C103.446 19.972 104.024 19.8087 104.799 19.762V21.96C104.799 22.1 104.818 22.1933 104.855 22.24C104.892 22.2773 105.009 22.31 105.205 22.338L106.885 22.562C107.128 22.59 107.338 22.6413 107.515 22.716C107.692 22.7813 107.842 22.884 107.963 23.024C108.234 23.3227 108.369 23.8967 108.369 24.746C108.369 25.642 108.14 26.2673 107.683 26.622C107.282 26.9207 106.703 27.0793 105.947 27.098V24.83ZM105.359 27.112C104.612 27.1027 103.959 27.056 103.399 26.972L102.601 26.846V25.054C102.974 25.0913 103.478 25.1287 104.113 25.166C104.468 25.1847 104.72 25.194 104.869 25.194H105.359V27.112ZM108.763 19.86H110.079V17.788H112.669V19.86H114.237V21.834H108.763V19.86ZM110.079 22.394H112.669V27H110.079V22.394ZM118.521 22.576C118.521 22.3333 118.512 22.1607 118.493 22.058C118.474 21.9553 118.418 21.8807 118.325 21.834C118.241 21.7873 118.082 21.7547 117.849 21.736C117.709 21.7267 117.406 21.722 116.939 21.722C116.491 21.722 116.076 21.7407 115.693 21.778L114.951 21.82V20C115.828 19.832 116.776 19.748 117.793 19.748C118.577 19.748 119.188 19.804 119.627 19.916C120.075 20.028 120.411 20.2053 120.635 20.448C120.831 20.672 120.957 20.9567 121.013 21.302C121.078 21.6473 121.111 22.128 121.111 22.744V27H118.521V22.576ZM116.449 27.098C115.805 27.098 115.329 26.9207 115.021 26.566C114.713 26.202 114.559 25.656 114.559 24.928C114.559 24.48 114.592 24.1207 114.657 23.85C114.722 23.57 114.834 23.3507 114.993 23.192C115.152 23.024 115.371 22.9073 115.651 22.842C115.931 22.7673 116.3 22.73 116.757 22.73L117.933 22.758V24.004H117.793C117.578 24.004 117.438 24.0087 117.373 24.018C117.186 24.0273 117.088 24.116 117.079 24.284C117.07 24.34 117.065 24.4567 117.065 24.634C117.065 24.774 117.07 24.8813 117.079 24.956C117.098 25.0307 117.126 25.0913 117.163 25.138C117.21 25.2033 117.28 25.2407 117.373 25.25C117.504 25.2687 117.644 25.278 117.793 25.278H117.933V26.706C117.728 26.8647 117.508 26.9673 117.275 27.014C117.051 27.07 116.776 27.098 116.449 27.098Z" fill="#00FFD1"/>
<path d="M16.2617 2.11684C16.2617 1.69284 16.6059 1.34912 17.0304 1.34912H22.7186C23.1432 1.34912 23.4873 1.69284 23.4873 2.11684V8.25861C23.4873 8.68261 23.1432 9.02633 22.7186 9.02633H17.0304C16.6059 9.02633 16.2617 8.68261 16.2617 8.25861V2.11684Z" fill="#00FFD1"/>
<path d="M25.5234 2.11684C25.5234 1.69284 25.8671 1.34912 26.2909 1.34912H37.3997C37.9808 1.34912 38.3511 1.97001 38.0751 2.48151L34.7607 8.62328C34.6267 8.87156 34.3674 9.02633 34.0853 9.02633H26.2909C25.8671 9.02633 25.5234 8.68261 25.5234 8.25861V2.11684Z" fill="#00FFD1"/>
<path d="M25.5234 11.5609C25.5234 11.1369 25.8698 10.7932 26.297 10.7932H32.2002C32.7846 10.7932 33.158 11.4117 32.8823 11.9231L29.5713 18.0649C29.4367 18.3145 29.1746 18.4704 28.8892 18.4704H26.297C25.8698 18.4704 25.5234 18.1267 25.5234 17.7027V11.5609Z" fill="#00FFD1"/>
<path d="M8.41397 11.4591C8.55535 11.2021 8.62605 11.0736 8.73052 10.9832C8.80173 10.9215 8.88369 10.8733 8.97238 10.8408C9.1025 10.7932 9.25013 10.7932 9.54539 10.7932H13.1624C13.6413 10.7932 13.8807 10.7932 14.0595 10.8943C14.1803 10.9626 14.2803 11.0618 14.3492 11.1816C14.4512 11.3589 14.4512 11.5963 14.4512 12.071V21.3749V26.4504C14.4512 26.9252 14.4512 27.1626 14.3492 27.3398C14.2803 27.4596 14.1803 27.5588 14.0595 27.6271C13.8807 27.7282 13.6413 27.7282 13.1624 27.7282H1.63477C0.875307 27.7282 0.495577 27.7282 0.281506 27.5555C0.138755 27.4403 0.0419218 27.2786 0.00828245 27.0991C-0.0421632 26.8301 0.139671 26.4996 0.50334 25.8385L8.41397 11.4591Z" fill="#00FFD1"/>
<path d="M16.2617 11.563C16.2617 11.1379 16.6059 10.7932 17.0304 10.7932H22.7186C23.1432 10.7932 23.4873 11.1379 23.4873 11.563V26.9585C23.4873 27.3836 23.1432 27.7282 22.7186 27.7282H17.0304C16.6059 27.7282 16.2617 27.3836 16.2617 26.9585V11.563Z" fill="#00FFD1"/>
</svg>
