<svg width="238" height="68" viewBox="0 0 238 68" fill="none" xmlns="http://www.w3.org/2000/svg">
<path d="M68 34C68 52.7777 52.7777 68 34 68C15.2223 68 0 52.7777 0 34C0 15.2223 15.2223 0 34 0C52.7777 0 68 15.2223 68 34Z" fill="black"/>
<path d="M20.602 30.8391C20.7801 30.5153 20.8692 30.3534 21.0009 30.2394C21.0906 30.1617 21.1939 30.1009 21.3056 30.06C21.4696 30 21.6556 30 22.0276 30H26.5853C27.1886 30 27.4903 30 27.7156 30.1274C27.8678 30.2135 27.9939 30.3385 28.0807 30.4894C28.2092 30.7128 28.2092 31.0119 28.2092 31.6101V43.3334V49.7288C28.2092 50.327 28.2092 50.6261 28.0807 50.8495C27.9939 51.0004 27.8678 51.1254 27.7156 51.2115C27.4903 51.3389 27.1886 51.3389 26.5853 51.3389H12.0599C11.1029 51.3389 10.6245 51.3389 10.3547 51.1212C10.1748 50.9761 10.0528 50.7723 10.0104 50.5462C9.94687 50.2072 10.176 49.7907 10.6342 48.9578L20.602 30.8391Z" fill="#00FFD1"/>
<path d="M30.4883 30.2046C30.4883 29.6689 30.9219 29.2346 31.4569 29.2346H38.6243C39.1592 29.2346 39.5929 29.6689 39.5929 30.2046V49.6036C39.5929 50.1393 39.1592 50.5735 38.6243 50.5735H31.4569C30.9219 50.5735 30.4883 50.1393 30.4883 49.6036V30.2046Z" fill="#00FFD1"/>
<path d="M30.4883 17.9674C30.4883 17.4331 30.9219 17 31.4569 17H38.6243C39.1592 17 39.5929 17.4331 39.5929 17.9674V25.7063C39.5929 26.2405 39.1592 26.6736 38.6243 26.6736H31.4569C30.9219 26.6736 30.4883 26.2405 30.4883 25.7063V17.9674Z" fill="#00FFD1"/>
<path d="M42.1562 17.9674C42.1562 17.4331 42.5892 17 43.1233 17H57.1209C57.8531 17 58.3197 17.7824 57.9719 18.4269L53.7957 26.1658C53.6268 26.4786 53.3001 26.6736 52.9446 26.6736H43.1233C42.5892 26.6736 42.1562 26.2405 42.1562 25.7063V17.9674Z" fill="#00FFD1"/>
<path d="M42.1562 30.202C42.1562 29.6677 42.5927 29.2346 43.131 29.2346H50.5693C51.3057 29.2346 51.7761 30.0139 51.4287 30.6583L47.2568 38.3972C47.0872 38.7118 46.7568 38.9083 46.3973 38.9083H43.131C42.5927 38.9083 42.1562 38.4752 42.1562 37.9409V30.202Z" fill="#00FFD1"/>
<path d="M106.833 12.736H107.309L109.521 20.408L106.301 32H100.701L106.833 12.736ZM113.133 28.584H108.457L109.633 24.272H111.873L108.569 12.736H113.693L119.825 32H114.113L113.133 28.584ZM121.127 12.736H126.727V32H121.127V12.736ZM102.335 37.112H107.535V55H102.335V37.112ZM108.627 37.112H114.711V41.09H108.627V37.112ZM108.627 44.496H113.749V48.474H108.627V44.496ZM123.119 46.784C123.119 46.3333 123.102 46.0127 123.067 45.822C123.032 45.6313 122.928 45.4927 122.755 45.406C122.599 45.3193 122.304 45.2587 121.871 45.224C121.611 45.2067 121.048 45.198 120.181 45.198C119.349 45.198 118.578 45.2327 117.867 45.302L116.489 45.38V42C118.118 41.688 119.878 41.532 121.767 41.532C123.223 41.532 124.358 41.636 125.173 41.844C126.005 42.052 126.629 42.3813 127.045 42.832C127.409 43.248 127.643 43.7767 127.747 44.418C127.868 45.0593 127.929 45.952 127.929 47.096V55H123.119V46.784ZM119.271 55.182C118.075 55.182 117.191 54.8527 116.619 54.194C116.047 53.518 115.761 52.504 115.761 51.152C115.761 50.32 115.822 49.6527 115.943 49.15C116.064 48.63 116.272 48.2227 116.567 47.928C116.862 47.616 117.269 47.3993 117.789 47.278C118.309 47.1393 118.994 47.07 119.843 47.07L122.027 47.122V49.436H121.767C121.368 49.436 121.108 49.4447 120.987 49.462C120.64 49.4793 120.458 49.644 120.441 49.956C120.424 50.06 120.415 50.2767 120.415 50.606C120.415 50.866 120.424 51.0653 120.441 51.204C120.476 51.3427 120.528 51.4553 120.597 51.542C120.684 51.6633 120.814 51.7327 120.987 51.75C121.23 51.7847 121.49 51.802 121.767 51.802H122.027V54.454C121.646 54.7487 121.238 54.9393 120.805 55.026C120.389 55.13 119.878 55.182 119.271 55.182ZM140.139 45.354C139.81 45.3367 139.359 45.2933 138.787 45.224C137.712 45.12 136.846 45.068 136.187 45.068H135.329V41.532C136.56 41.532 137.73 41.6187 138.839 41.792L140.139 42.026V45.354ZM136.369 50.97C136.369 50.71 136.326 50.5453 136.239 50.476C136.152 50.4067 135.97 50.3547 135.693 50.32L132.885 49.93C132.192 49.826 131.628 49.6613 131.195 49.436C130.779 49.2107 130.467 48.9073 130.259 48.526C130.051 48.1967 129.912 47.798 129.843 47.33C129.774 46.862 129.739 46.2813 129.739 45.588C129.739 44.1667 130.164 43.1267 131.013 42.468C131.724 41.948 132.798 41.6447 134.237 41.558V45.64C134.237 45.9 134.272 46.0733 134.341 46.16C134.41 46.2293 134.627 46.29 134.991 46.342L138.111 46.758C138.562 46.81 138.952 46.9053 139.281 47.044C139.61 47.1653 139.888 47.356 140.113 47.616C140.616 48.1707 140.867 49.2367 140.867 50.814C140.867 52.478 140.442 53.6393 139.593 54.298C138.848 54.8527 137.773 55.1473 136.369 55.182V50.97ZM135.277 55.208C133.89 55.1907 132.677 55.104 131.637 54.948L130.155 54.714V51.386C130.848 51.4553 131.784 51.5247 132.963 51.594C133.622 51.6287 134.09 51.646 134.367 51.646H135.277V55.208ZM142.74 35.682H147.55V55H142.74V35.682ZM150.254 48.734C150.254 47.8153 150.246 47.2087 150.228 46.914C150.194 46.4287 150.15 46.108 150.098 45.952C150.029 45.7787 149.908 45.6747 149.734 45.64C149.561 45.588 149.284 45.562 148.902 45.562H148.642V42.39C149.336 41.8353 150.22 41.558 151.294 41.558C152.854 41.558 153.903 42.0347 154.44 42.988C154.683 43.404 154.848 43.9153 154.934 44.522C155.021 45.1113 155.064 45.8393 155.064 46.706V55H150.254V48.734ZM157.506 35.682H162.316V39.426H157.506V35.682ZM157.506 41.74H162.316V55H157.506V41.74ZM172.165 48.396C172.165 47.512 172.156 46.9227 172.139 46.628C172.122 46.212 172.07 45.9 171.983 45.692C171.896 45.4667 171.758 45.328 171.567 45.276C171.359 45.224 171.073 45.198 170.709 45.198H170.345V41.532H170.709C172.217 41.532 173.396 41.6533 174.245 41.896C175.094 42.1213 175.727 42.5027 176.143 43.04C176.524 43.5253 176.767 44.1753 176.871 44.99C176.992 45.7873 177.053 46.9227 177.053 48.396C177.053 49.7653 177.01 50.8313 176.923 51.594C176.854 52.3393 176.672 52.9547 176.377 53.44C176.048 53.9773 175.554 54.3847 174.895 54.662C174.236 54.922 173.326 55.0867 172.165 55.156V48.396ZM170.709 55.208C169.201 55.208 168.022 55.0953 167.173 54.87C166.324 54.6447 165.691 54.2633 165.275 53.726C164.894 53.2407 164.642 52.5993 164.521 51.802C164.417 51.0047 164.365 49.8693 164.365 48.396C164.365 47.044 164.408 45.9867 164.495 45.224C164.582 44.4613 164.772 43.8287 165.067 43.326C165.379 42.7713 165.864 42.364 166.523 42.104C167.182 41.8267 168.092 41.6533 169.253 41.584V48.396C169.253 49.28 169.262 49.8607 169.279 50.138C169.296 50.554 169.348 50.866 169.435 51.074C169.522 51.282 169.669 51.412 169.877 51.464C170.05 51.516 170.328 51.542 170.709 51.542H171.073V55.208H170.709ZM186.628 48.734C186.628 47.8153 186.619 47.2087 186.602 46.914C186.567 46.4287 186.524 46.108 186.472 45.952C186.403 45.7787 186.281 45.6747 186.108 45.64C185.935 45.588 185.657 45.562 185.276 45.562H185.016V42.312C185.692 41.8093 186.576 41.558 187.668 41.558C189.228 41.558 190.277 42.0347 190.814 42.988C191.057 43.404 191.221 43.9153 191.308 44.522C191.395 45.1113 191.438 45.8393 191.438 46.706V55H186.628V48.734ZM179.114 41.74H183.924V55H179.114V41.74ZM193.879 35.682H198.689V39.426H193.879V35.682ZM193.879 41.74H198.689V55H193.879V41.74ZM210.957 45.354C210.627 45.3367 210.177 45.2933 209.605 45.224C208.53 45.12 207.663 45.068 207.005 45.068H206.147V41.532C207.377 41.532 208.547 41.6187 209.657 41.792L210.957 42.026V45.354ZM207.187 50.97C207.187 50.71 207.143 50.5453 207.057 50.476C206.97 50.4067 206.788 50.3547 206.511 50.32L203.703 49.93C203.009 49.826 202.446 49.6613 202.013 49.436C201.597 49.2107 201.285 48.9073 201.077 48.526C200.869 48.1967 200.73 47.798 200.661 47.33C200.591 46.862 200.557 46.2813 200.557 45.588C200.557 44.1667 200.981 43.1267 201.831 42.468C202.541 41.948 203.616 41.6447 205.055 41.558V45.64C205.055 45.9 205.089 46.0733 205.159 46.16C205.228 46.2293 205.445 46.29 205.809 46.342L208.929 46.758C209.379 46.81 209.769 46.9053 210.099 47.044C210.428 47.1653 210.705 47.356 210.931 47.616C211.433 48.1707 211.685 49.2367 211.685 50.814C211.685 52.478 211.26 53.6393 210.411 54.298C209.665 54.8527 208.591 55.1473 207.187 55.182V50.97ZM206.095 55.208C204.708 55.1907 203.495 55.104 202.455 54.948L200.973 54.714V51.386C201.666 51.4553 202.602 51.5247 203.781 51.594C204.439 51.6287 204.907 51.646 205.185 51.646H206.095V55.208ZM212.417 41.74H214.861V37.892H219.671V41.74H222.583V45.406H212.417V41.74ZM214.861 46.446H219.671V55H214.861V46.446ZM230.539 46.784C230.539 46.3333 230.521 46.0127 230.487 45.822C230.452 45.6313 230.348 45.4927 230.175 45.406C230.019 45.3193 229.724 45.2587 229.291 45.224C229.031 45.2067 228.467 45.198 227.601 45.198C226.769 45.198 225.997 45.2327 225.287 45.302L223.909 45.38V42C225.538 41.688 227.297 41.532 229.187 41.532C230.643 41.532 231.778 41.636 232.593 41.844C233.425 42.052 234.049 42.3813 234.465 42.832C234.829 43.248 235.063 43.7767 235.167 44.418C235.288 45.0593 235.349 45.952 235.349 47.096V55H230.539V46.784ZM226.691 55.182C225.495 55.182 224.611 54.8527 224.039 54.194C223.467 53.518 223.181 52.504 223.181 51.152C223.181 50.32 223.241 49.6527 223.363 49.15C223.484 48.63 223.692 48.2227 223.987 47.928C224.281 47.616 224.689 47.3993 225.209 47.278C225.729 47.1393 226.413 47.07 227.263 47.07L229.447 47.122V49.436H229.187C228.788 49.436 228.528 49.4447 228.407 49.462C228.06 49.4793 227.878 49.644 227.861 49.956C227.843 50.06 227.835 50.2767 227.835 50.606C227.835 50.866 227.843 51.0653 227.861 51.204C227.895 51.3427 227.947 51.4553 228.017 51.542C228.103 51.6633 228.233 51.7327 228.407 51.75C228.649 51.7847 228.909 51.802 229.187 51.802H229.447V54.454C229.065 54.7487 228.658 54.9393 228.225 55.026C227.809 55.13 227.297 55.182 226.691 55.182Z" fill="black"/>
</svg>
