<svg width="451" height="56" viewBox="0 0 451 56" fill="none" xmlns="http://www.w3.org/2000/svg">
<path d="M108.155 10.16H109.09L113.435 25.23L107.11 48H96.11L108.155 10.16ZM120.53 41.29H111.345L113.655 32.82H118.055L111.565 10.16H121.63L133.675 48H122.455L120.53 41.29ZM136.234 10.16H147.234V48H136.234V10.16ZM166.475 10.16H177.475V48H166.475V10.16ZM179.785 10.16H192.655V18.575H179.785V10.16ZM179.785 25.78H190.62V34.195H179.785V25.78ZM210.443 30.62C210.443 29.6667 210.406 28.9883 210.333 28.585C210.259 28.1817 210.039 27.8883 209.673 27.705C209.343 27.5217 208.719 27.3933 207.803 27.32C207.253 27.2833 206.061 27.265 204.228 27.265C202.468 27.265 200.836 27.3383 199.333 27.485L196.418 27.65V20.5C199.864 19.84 203.586 19.51 207.583 19.51C210.663 19.51 213.064 19.73 214.788 20.17C216.548 20.61 217.868 21.3067 218.748 22.26C219.518 23.14 220.013 24.2583 220.233 25.615C220.489 26.9717 220.618 28.86 220.618 31.28V48H210.443V30.62ZM202.303 48.385C199.773 48.385 197.903 47.6883 196.693 46.295C195.483 44.865 194.878 42.72 194.878 39.86C194.878 38.1 195.006 36.6883 195.263 35.625C195.519 34.525 195.959 33.6633 196.583 33.04C197.206 32.38 198.068 31.9217 199.168 31.665C200.268 31.3717 201.716 31.225 203.513 31.225L208.133 31.335V36.23H207.583C206.739 36.23 206.189 36.2483 205.933 36.285C205.199 36.3217 204.814 36.67 204.778 37.33C204.741 37.55 204.723 38.0083 204.723 38.705C204.723 39.255 204.741 39.6767 204.778 39.97C204.851 40.2633 204.961 40.5017 205.108 40.685C205.291 40.9417 205.566 41.0883 205.933 41.125C206.446 41.1983 206.996 41.235 207.583 41.235H208.133V46.845C207.326 47.4683 206.464 47.8717 205.548 48.055C204.668 48.275 203.586 48.385 202.303 48.385ZM246.446 27.595C245.75 27.5583 244.796 27.4667 243.586 27.32C241.313 27.1 239.48 26.99 238.086 26.99H236.271V19.51C238.875 19.51 241.35 19.6933 243.696 20.06L246.446 20.555V27.595ZM238.471 39.475C238.471 38.925 238.38 38.5767 238.196 38.43C238.013 38.2833 237.628 38.1733 237.041 38.1L231.101 37.275C229.635 37.055 228.443 36.7067 227.526 36.23C226.646 35.7533 225.986 35.1117 225.546 34.305C225.106 33.6083 224.813 32.765 224.666 31.775C224.52 30.785 224.446 29.5567 224.446 28.09C224.446 25.0833 225.345 22.8833 227.141 21.49C228.645 20.39 230.918 19.7483 233.961 19.565V28.2C233.961 28.75 234.035 29.1167 234.181 29.3C234.328 29.4467 234.786 29.575 235.556 29.685L242.156 30.565C243.11 30.675 243.935 30.8767 244.631 31.17C245.328 31.4267 245.915 31.83 246.391 32.38C247.455 33.5533 247.986 35.8083 247.986 39.145C247.986 42.665 247.088 45.1217 245.291 46.515C243.715 47.6883 241.441 48.3117 238.471 48.385V39.475ZM236.161 48.44C233.228 48.4033 230.661 48.22 228.461 47.89L225.326 47.395V40.355C226.793 40.5017 228.773 40.6483 231.266 40.795C232.66 40.8683 233.65 40.905 234.236 40.905H236.161V48.44ZM251.949 7.135H262.124V48H251.949V7.135ZM267.844 34.745C267.844 32.8017 267.826 31.5183 267.789 30.895C267.716 29.8683 267.624 29.19 267.514 28.86C267.367 28.4933 267.111 28.2733 266.744 28.2C266.377 28.09 265.791 28.035 264.984 28.035H264.434V21.325C265.901 20.1517 267.771 19.565 270.044 19.565C273.344 19.565 275.562 20.5733 276.699 22.59C277.212 23.47 277.561 24.5517 277.744 25.835C277.927 27.0817 278.019 28.6217 278.019 30.455V48H267.844V34.745ZM283.183 7.135H293.358V15.055H283.183V7.135ZM283.183 19.95H293.358V48H283.183V19.95ZM314.194 34.03C314.194 32.16 314.175 30.9133 314.139 30.29C314.102 29.41 313.992 28.75 313.809 28.31C313.625 27.8333 313.332 27.54 312.929 27.43C312.489 27.32 311.884 27.265 311.114 27.265H310.344V19.51H311.114C314.304 19.51 316.797 19.7667 318.594 20.28C320.39 20.7567 321.729 21.5633 322.609 22.7C323.415 23.7267 323.929 25.1017 324.149 26.825C324.405 28.5117 324.534 30.9133 324.534 34.03C324.534 36.9267 324.442 39.1817 324.259 40.795C324.112 42.3717 323.727 43.6733 323.104 44.7C322.407 45.8367 321.362 46.6983 319.969 47.285C318.575 47.835 316.65 48.1833 314.194 48.33V34.03ZM311.114 48.44C307.924 48.44 305.43 48.2017 303.634 47.725C301.837 47.2483 300.499 46.4417 299.619 45.305C298.812 44.2783 298.28 42.9217 298.024 41.235C297.804 39.5483 297.694 37.1467 297.694 34.03C297.694 31.17 297.785 28.9333 297.969 27.32C298.152 25.7067 298.555 24.3683 299.179 23.305C299.839 22.1317 300.865 21.27 302.259 20.72C303.652 20.1333 305.577 19.7667 308.034 19.62V34.03C308.034 35.9 308.052 37.1283 308.089 37.715C308.125 38.595 308.235 39.255 308.419 39.695C308.602 40.135 308.914 40.41 309.354 40.52C309.72 40.63 310.307 40.685 311.114 40.685H311.884V48.44H311.114ZM344.788 34.745C344.788 32.8017 344.77 31.5183 344.733 30.895C344.66 29.8683 344.568 29.19 344.458 28.86C344.312 28.4933 344.055 28.2733 343.688 28.2C343.322 28.09 342.735 28.035 341.928 28.035H341.378V21.16C342.808 20.0967 344.678 19.565 346.988 19.565C350.288 19.565 352.507 20.5733 353.643 22.59C354.157 23.47 354.505 24.5517 354.688 25.835C354.872 27.0817 354.963 28.6217 354.963 30.455V48H344.788V34.745ZM328.893 19.95H339.068V48H328.893V19.95ZM360.127 7.135H370.302V15.055H360.127V7.135ZM360.127 19.95H370.302V48H360.127V19.95ZM396.253 27.595C395.556 27.5583 394.603 27.4667 393.393 27.32C391.119 27.1 389.286 26.99 387.893 26.99H386.078V19.51C388.681 19.51 391.156 19.6933 393.503 20.06L396.253 20.555V27.595ZM388.278 39.475C388.278 38.925 388.186 38.5767 388.003 38.43C387.819 38.2833 387.434 38.1733 386.848 38.1L380.908 37.275C379.441 37.055 378.249 36.7067 377.333 36.23C376.453 35.7533 375.793 35.1117 375.353 34.305C374.913 33.6083 374.619 32.765 374.473 31.775C374.326 30.785 374.253 29.5567 374.253 28.09C374.253 25.0833 375.151 22.8833 376.948 21.49C378.451 20.39 380.724 19.7483 383.768 19.565V28.2C383.768 28.75 383.841 29.1167 383.988 29.3C384.134 29.4467 384.593 29.575 385.363 29.685L391.963 30.565C392.916 30.675 393.741 30.8767 394.438 31.17C395.134 31.4267 395.721 31.83 396.198 32.38C397.261 33.5533 397.793 35.8083 397.793 39.145C397.793 42.665 396.894 45.1217 395.098 46.515C393.521 47.6883 391.248 48.3117 388.278 48.385V39.475ZM385.968 48.44C383.034 48.4033 380.468 48.22 378.268 47.89L375.133 47.395V40.355C376.599 40.5017 378.579 40.6483 381.073 40.795C382.466 40.8683 383.456 40.905 384.043 40.905H385.968V48.44ZM399.342 19.95H404.512V11.81H414.687V19.95H420.847V27.705H399.342V19.95ZM404.512 29.905H414.687V48H404.512V29.905ZM437.676 30.62C437.676 29.6667 437.64 28.9883 437.566 28.585C437.493 28.1817 437.273 27.8883 436.906 27.705C436.576 27.5217 435.953 27.3933 435.036 27.32C434.486 27.2833 433.295 27.265 431.461 27.265C429.701 27.265 428.07 27.3383 426.566 27.485L423.651 27.65V20.5C427.098 19.84 430.82 19.51 434.816 19.51C437.896 19.51 440.298 19.73 442.021 20.17C443.781 20.61 445.101 21.3067 445.981 22.26C446.751 23.14 447.246 24.2583 447.466 25.615C447.723 26.9717 447.851 28.86 447.851 31.28V48H437.676V30.62ZM429.536 48.385C427.006 48.385 425.136 47.6883 423.926 46.295C422.716 44.865 422.111 42.72 422.111 39.86C422.111 38.1 422.24 36.6883 422.496 35.625C422.753 34.525 423.193 33.6633 423.816 33.04C424.44 32.38 425.301 31.9217 426.401 31.665C427.501 31.3717 428.95 31.225 430.746 31.225L435.366 31.335V36.23H434.816C433.973 36.23 433.423 36.2483 433.166 36.285C432.433 36.3217 432.048 36.67 432.011 37.33C431.975 37.55 431.956 38.0083 431.956 38.705C431.956 39.255 431.975 39.6767 432.011 39.97C432.085 40.2633 432.195 40.5017 432.341 40.685C432.525 40.9417 432.8 41.0883 433.166 41.125C433.68 41.1983 434.23 41.235 434.816 41.235H435.366V46.845C434.56 47.4683 433.698 47.8717 432.781 48.055C431.901 48.275 430.82 48.385 429.536 48.385Z" fill="url(#paint0_linear_4796_316)"/>
<path d="M17.859 21.8064C18.1591 21.2662 18.3091 20.9961 18.5309 20.806C18.682 20.6764 18.856 20.575 19.0442 20.5068C19.3204 20.4067 19.6338 20.4067 20.2605 20.4067H27.9378C28.9541 20.4067 29.4623 20.4067 29.8418 20.6193C30.0982 20.7628 30.3106 20.9713 30.4568 21.223C30.6733 21.5956 30.6733 22.0946 30.6733 23.0924V42.6469V53.3143C30.6733 54.3121 30.6733 54.8111 30.4568 55.1837C30.3106 55.4354 30.0982 55.6439 29.8418 55.7874C29.4623 56 28.9541 56 27.9378 56H3.46986C1.85787 56 1.05188 56 0.597508 55.6369C0.294512 55.3948 0.0889806 55.0549 0.0175798 54.6778C-0.0894932 54.1123 0.296458 53.4176 1.06836 52.0283L17.859 21.8064Z" fill="#00FFD1"/>
<path d="M34.5078 22.0246C34.5078 21.1311 35.2383 20.4067 36.1394 20.4067H48.2129C49.114 20.4067 49.8445 21.1311 49.8445 22.0246V54.3821C49.8445 55.2756 49.114 56 48.2129 56H36.1394C35.2383 56 34.5078 55.2756 34.5078 54.3821V22.0246Z" fill="#00FFD1"/>
<path d="M34.5078 1.61356C34.5078 0.722416 35.2383 0 36.1394 0H48.2129C49.114 0 49.8445 0.722415 49.8445 1.61356V14.522C49.8445 15.4132 49.114 16.1356 48.2129 16.1356H36.1394C35.2383 16.1356 34.5078 15.4132 34.5078 14.522V1.61356Z" fill="#00FFD1"/>
<path d="M54.1602 1.61356C54.1602 0.722416 54.8895 0 55.7892 0H79.3679C80.6014 0 81.3874 1.30496 80.8015 2.38001L73.7667 15.2885C73.4823 15.8103 72.9318 16.1356 72.3331 16.1356H55.7892C54.8895 16.1356 54.1602 15.4132 54.1602 14.522V1.61356Z" fill="#00FFD1"/>
<path d="M54.1602 22.0203C54.1602 21.1292 54.8953 20.4067 55.8021 20.4067H68.3318C69.5723 20.4067 70.3648 21.7066 69.7796 22.7815L62.752 35.6899C62.4663 36.2147 61.9098 36.5423 61.3042 36.5423H55.8021C54.8953 36.5423 54.1602 35.8199 54.1602 34.9288V22.0203Z" fill="#00FFD1"/>
<defs>
<linearGradient id="paint0_linear_4796_316" x1="96" y1="28.5" x2="451" y2="28.5" gradientUnits="userSpaceOnUse">
<stop stop-color="#00FFD1"/>
<stop offset="0.5" stop-color="#B4FCEF"/>
<stop offset="1" stop-color="white"/>
</linearGradient>
</defs>
</svg>
