<svg width="31" height="30" viewBox="0 0 31 30" fill="none" xmlns="http://www.w3.org/2000/svg">
<rect x="0.5" width="30" height="30" rx="4" fill="black"/>
<path d="M22.7396 10.8806C21.7973 10.8806 20.926 10.5676 20.2289 10.0416C19.4286 9.43815 18.851 8.5507 18.6477 7.53095C18.596 7.27924 18.5702 7.01785 18.567 6.75H15.8724V14.1109L15.8692 18.1416C15.8692 19.2194 15.1657 20.1327 14.1943 20.4554C13.9103 20.5489 13.607 20.5941 13.2907 20.5748C12.8841 20.5522 12.5065 20.4295 12.1742 20.2327C11.4707 19.8132 10.9963 19.0516 10.9834 18.177C10.964 16.8152 12.0644 15.7019 13.4263 15.7019C13.6941 15.7019 13.9523 15.7471 14.1943 15.8245V13.8141V13.0944C13.9394 13.0557 13.6812 13.0363 13.4166 13.0363C11.9257 13.0363 10.5316 13.6559 9.53442 14.7725C8.78251 15.6148 8.33072 16.6926 8.25973 17.8221C8.16937 19.3033 8.71152 20.7135 9.76354 21.7526C9.91844 21.9043 10.0798 22.0463 10.2508 22.1786C11.1544 22.8724 12.2548 23.25 13.4166 23.25C13.678 23.25 13.9394 23.2306 14.1943 23.1919C15.2786 23.0306 16.279 22.5336 17.0696 21.7526C18.041 20.7942 18.5767 19.5195 18.5831 18.1641L18.5702 12.1424C19.0349 12.5006 19.5383 12.7943 20.0837 13.0234C20.9292 13.3816 21.8263 13.5591 22.746 13.5591V11.6035V10.8774C22.7493 10.8806 22.7396 10.8806 22.7396 10.8806Z" fill="white"/>
</svg>
