<svg width="31" height="30" viewBox="0 0 31 30" fill="none" xmlns="http://www.w3.org/2000/svg">
<rect x="0.75" width="30" height="30" rx="4" fill="black"/>
<path d="M16.1155 20.8166L12.7304 20.7533C11.6343 20.7313 10.5356 20.7753 9.46103 20.5469C7.82639 20.2056 7.71059 18.5324 7.58941 17.1288C7.42245 15.1556 7.48708 13.1466 7.80217 11.1899C7.98005 10.092 8.68008 9.43683 9.76265 9.36554C13.4171 9.10681 17.0959 9.13747 20.7422 9.25818C21.1273 9.26924 21.5151 9.32972 21.8948 9.39857C23.7692 9.73433 23.8149 11.6305 23.9364 13.2267C24.0576 14.8394 24.0065 16.4604 23.7749 18.0621C23.589 19.3882 23.2335 20.5003 21.7332 20.6077C19.8534 20.7481 18.0168 20.8611 16.1317 20.8251C16.1317 20.8166 16.1209 20.8166 16.1155 20.8166ZM14.1254 17.4591C15.542 16.6279 16.9315 15.8106 18.34 14.985C16.9208 14.1538 15.5339 13.3365 14.1254 12.5109V17.4591Z" fill="white"/>
</svg>
